<?xml version="1.0" encoding="UTF-8" standalone="no"?>
<!DOCTYPE svg PUBLIC "-//W3C//DTD SVG 1.1//EN" "http://www.w3.org/Graphics/SVG/1.1/DTD/svg11.dtd">
<!-- Created with Vectornator (http://vectornator.io/) -->
<svg height="100%" stroke-miterlimit="10" style="fill-rule:nonzero;clip-rule:evenodd;stroke-linecap:round;stroke-linejoin:round;" version="1.1" viewBox="0 0 800 800" width="100%" xml:space="preserve" xmlns="http://www.w3.org/2000/svg" xmlns:xlink="http://www.w3.org/1999/xlink">
<defs>
<path d="M443.833 316.322C447.312 316.322 450.639 316.228 453.816 316.04C466.923 315.262 477.462 312.88 485.435 308.893C501.001 301.111 508.783 287.102 508.783 266.867C508.783 246.49 500.505 232.764 483.949 225.689C474.61 221.727 460.743 219.746 442.347 219.746L402.303 220.298L390.02 316.279L443.833 316.322ZM427.69 350.346L386.896 350.237C386.896 350.237 445.378 350.346 427.69 350.346ZM359.861 184.701C359.861 184.701 369.138 184.701 402.621 184.701C436.104 184.701 459.54 184.512 459.54 184.512C496.048 184.512 522.014 195.407 537.438 217.199C546.494 230.076 551.022 244.934 551.022 261.773C551.022 281.442 545.433 297.573 534.254 310.167C528.452 316.818 523.144 321.898 515.237 328.166C513.339 329.671 490.958 342.098 481.801 344.377C452.823 351.587 386.939 351.142 386.939 351.142L369.715 496.261L325.607 496.315L359.861 184.701Z" id="Fill"/>
</defs>
<clipPath id="ArtboardFrame">
<rect height="800" width="800" x="0" y="0"/>
</clipPath>
<g clip-path="url(#ArtboardFrame)" id="Layer-1">
<path d="M400.844-9.28146e-14L343.701 57.1429L115.129 57.1429C115.129 57.1429 116.101 330.397 115.129 514.286C114.157 698.174 400.844 800 400.844 800C400.844 800 685.9 698.872 686.558 514.286C686.63 494.095 686.686 472.851 686.729 451.026C687.08 273.333 686.558 57.1429 686.558 57.1429L457.987 57.1429L400.844-9.28146e-14Z" fill="#ffffff" fill-rule="nonzero" opacity="1" stroke="#ffffff" stroke-linecap="butt" stroke-linejoin="round" stroke-width="1"/>
<path d="M400.844 50.5357C388.944 62.4356 376.937 74.442 368.969 82.4107C362.271 89.1084 353.173 92.8571 343.701 92.8571C295.509 92.8571 211.858 92.8571 150.933 92.8571C151.094 143.298 151.708 350.977 150.844 514.464C150.64 552.956 167.071 588.893 192.975 621.166C215.57 649.316 245.372 674.678 277.629 696.518C327.982 730.609 378.556 752.693 400.888 761.696C423.137 752.726 473.304 730.761 523.433 696.786C592.205 650.175 650.584 587.006 650.844 514.152C650.916 493.984 650.979 472.746 651.022 450.937C651.341 289.428 650.919 126.538 650.844 92.8571C589.917 92.8571 506.201 92.8571 457.987 92.8571C448.514 92.8571 439.416 89.1085 432.719 82.4107C424.75 74.442 412.743 62.4356 400.844 50.5357Z" fill="#dc2626" fill-rule="nonzero" opacity="1" stroke="#ffffff" stroke-linecap="butt" stroke-linejoin="round" stroke-width="12.5"/>
<g opacity="1">
<path d="M443.833 316.322C461.663 316.322 475.53 313.846 485.435 308.893C501.001 301.111 508.783 287.102 508.783 266.867C508.783 246.49 500.505 232.764 483.949 225.689C474.61 221.727 460.743 219.746 442.347 219.746L402.303 220.298L390.02 316.279L443.833 316.322ZM434.136 460.082C460.031 460.082 478.497 452.583 489.534 437.583C496.468 428.103 499.935 416.641 499.935 403.198C499.935 380.557 489.817 365.133 469.582 356.926C458.828 352.539 444.607 350.346 426.919 350.346L386.896 350.237L374.134 460.021L434.136 460.082ZM359.861 184.701C359.861 184.701 369.138 184.701 402.621 184.701C436.104 184.701 459.54 184.512 459.54 184.512C496.048 184.512 522.014 195.407 537.438 217.199C546.494 230.076 551.022 244.934 551.022 261.773C551.022 281.442 545.433 297.573 534.254 310.167C528.452 316.818 424.906 316.792 443.836 316.854C462.765 316.915 509.196 336.648 521.16 348.86C535.169 362.445 542.174 381.194 542.174 405.108C542.174 425.202 535.877 443.385 523.283 459.658C504.463 483.997 474.535 496.166 433.499 496.166C433.499 496.166 394.952 496.219 367.979 496.257C341.006 496.294 325.607 496.315 325.607 496.315L359.861 184.701Z" fill="#ffffff" fill-rule="nonzero" opacity="1" stroke="none"/>
<path d="M329.298 509.348" fill="#007aff" fill-rule="nonzero" opacity="1" stroke="none"/>
</g>
<g opacity="1">
<g opacity="1">
<use fill="#ffffff" fill-rule="nonzero" stroke="none" xlink:href="#Fill"/>
<mask height="351.804" id="StrokeMask" maskUnits="userSpaceOnUse" width="265.416" x="305.607" y="164.512">
<rect fill="#ffffff" height="351.804" stroke="none" width="265.416" x="305.607" y="164.512"/>
<use fill="#000000" fill-rule="evenodd" stroke="none" xlink:href="#Fill"/>
</mask>
<use fill="none" mask="url(#StrokeMask)" stroke="#dc2626" stroke-linecap="butt" stroke-linejoin="round" stroke-width="40" xlink:href="#Fill"/>
</g>
<path d="M329.298 509.348" fill="#ffffff" fill-rule="nonzero" opacity="1" stroke="none"/>
</g>
<path d="M325.678 496.357L280.601 350.193L251.1 350.193L251.1 315.749L290.602 315.749C290.602 315.749 298.159 316.153 304.024 324.764C305.797 327.369 307.416 330.724 308.812 334.138C312.03 342.011 314.059 350.193 314.059 350.193L335.498 424.485" fill="#ffffff" fill-rule="nonzero" opacity="1" stroke="none"/>
<path d="M220.528 654.802L404.119 571.095C404.119 571.095 438.349 587.891 481.326 608.98C524.303 630.068 578.85 654.802 578.85 654.802" fill="none" opacity="1" stroke="#ffffff" stroke-linecap="butt" stroke-linejoin="round" stroke-width="45"/>
</g>
</svg>
